<?xml version="1.0" encoding="utf-8"?>
<!-- Generator: Adobe Illustrator 23.0.3, SVG Export Plug-In . SVG Version: 6.00 Build 0)  -->
<svg version="1.1" id="Layer_1" xmlns="http://www.w3.org/2000/svg" xmlns:xlink="http://www.w3.org/1999/xlink" x="0px" y="0px"
	 viewBox="0 0 1300 270.6" style="enable-background:new 0 0 1300 270.6;" xml:space="preserve">
<style type="text/css">
	.st0{fill:#FFFFFF;}
	.st1{fill:#44C8F5;}
</style>
<title>SilverStripe1300px_Dark</title>
<g id="Logos">
	<path class="st0" d="M408.3,169.1c0.1-4.2-1.7-8.1-4.9-10.8c-3.7-3.1-7.8-5.6-12.2-7.6c-4.9-2.3-10.2-4.6-16-7
		c-5.6-2.4-11-5.3-16-8.9c-4.9-3.5-9.1-8-12.2-13.2c-3.2-5.2-4.9-11.9-4.9-20.1c-0.1-6.3,1.1-12.5,3.5-18.3c2.3-5.1,5.7-9.5,10.1-13
		c4.6-3.6,9.8-6.2,15.4-7.7c6.5-1.7,13.2-2.6,19.9-2.5c8,0,16,0.7,23.9,2.2c6.5,1.1,12.7,3.2,18.5,6.3l-8.9,23.8
		c-3-1.9-7.6-3.7-13.7-5.3c-6.4-1.6-13.1-2.4-19.7-2.4c-6.6,0-11.7,1.3-15.2,3.9c-3.4,2.4-5.4,6.4-5.3,10.6c-0.1,4,1.7,7.8,4.9,10.4
		c3.7,3.1,7.8,5.6,12.2,7.6c4.9,2.3,10.2,4.8,16,7.3c5.6,2.4,11,5.4,16,9c4.9,3.5,9,7.9,12.2,13c3.2,5.2,4.9,11.7,4.9,19.4
		c0,7.7-1.3,14.4-3.8,20c-2.4,5.4-6.1,10.2-10.8,14c-5,3.9-10.7,6.7-16.8,8.3c-7.1,1.9-14.3,2.8-21.7,2.7
		c-9.2,0.1-18.4-0.8-27.4-2.9c-7.9-1.9-13.7-3.9-17.4-5.8L348,178c1.9,1,3.9,1.9,5.9,2.7c2.7,1,5.4,1.9,8.2,2.7
		c3.2,0.9,6.4,1.6,9.6,2.1c3.5,0.6,7,0.8,10.5,0.8c8.4,0,14.9-1.4,19.4-4.2C406,179.2,408.3,174.9,408.3,169.1z"/>
	<path class="st0" d="M449.1,75.2c-0.1-3.9,1.6-7.6,4.5-10.3c3-2.8,7.1-4.2,12.3-4.2s9.5,1.4,12.8,4.2c3.1,2.5,4.9,6.3,4.9,10.3
		c0,3.9-1.8,7.7-4.9,10.1c-3.2,2.7-7.5,4.1-12.8,4.1s-9.4-1.4-12.3-4.1C450.6,82.8,449,79.1,449.1,75.2z M453,104.5h27v103.6h-27
		V104.5z"/>
	<path class="st0" d="M531.5,173.3c0,4.8,0.6,8.4,1.9,10.6c1.2,2.2,3.5,3.5,6,3.3c1.6,0,3.3-0.1,4.9-0.4c2-0.4,4-1,5.9-1.9l2.9,21.1
		c-3.3,1.4-6.7,2.5-10.1,3.3c-4.6,1.1-9.3,1.7-14.1,1.7c-7.9,0-13.9-1.8-18-5.5c-4.1-3.7-6.2-9.7-6.2-18.1V63h27L531.5,173.3z"/>
	<path class="st0" d="M596,158.8l3.5,16h1l2.9-16.4l17.6-53.9h29l-43.2,104.6h-16.4l-45-104.6h31.3L596,158.8z"/>
	<path class="st0" d="M740.7,199.2c-4.2,3.3-9.8,6.1-16.9,8.4c-7.3,2.3-15,3.5-22.7,3.4c-16.7,0-29-4.9-36.7-14.6
		c-7.7-9.7-11.6-23.1-11.6-40.1c0-18.2,4.4-31.9,13.1-41s20.9-13.7,36.7-13.7c5.2,0,10.3,0.7,15.3,2.1c4.9,1.3,9.4,3.6,13.3,6.8
		c4.1,3.5,7.3,7.8,9.3,12.8c2.3,5.4,3.5,12.1,3.5,20.1c0,3.1-0.2,6.2-0.5,9.3c-0.3,3.3-0.9,6.8-1.5,10.4h-62
		c0.4,8.7,2.6,15.3,6.7,19.7c4.1,4.4,10.6,6.6,19.7,6.6c9.1,0.1,18-2.7,25.4-7.9L740.7,199.2z M702.2,123.1c-7,0-12.2,2.1-15.6,6.3
		c-3.4,4.2-5.4,9.9-6.1,16.9h38.3c0.6-7.5-0.6-13.2-3.4-17.2S708.3,123.1,702.2,123.1L702.2,123.1z"/>
	<path class="st0" d="M819.5,129.8c-3.7-1.4-7.6-2.2-11.6-2.3c-4.4-0.1-8.6,1.2-12.1,3.9c-3.2,2.5-5.5,5.9-6.5,9.9v66.9h-27V104.5
		h20.9l3.1,13.7h0.8c2.1-4.7,5.3-8.8,9.5-11.8c4.2-2.8,9.1-4.3,14.1-4.1c4.2,0.1,8.3,0.9,12.2,2.3L819.5,129.8z"/>
	<path class="st0" d="M907.4,171.2c0-5.8-1.7-10.5-5.2-14.2c-3.8-3.9-8.2-7.2-13-9.8c-5.5-3-11.1-5.6-16.9-8
		c-5.9-2.4-11.6-5.4-16.9-9c-5.1-3.5-9.6-7.9-13-13.1c-3.5-5.2-5.2-11.8-5.2-19.8c0-11.3,3.9-20.3,11.8-26.9
		c7.9-6.6,19.1-9.9,33.6-9.9c7.7-0.1,15.4,0.6,23,1.9c6.9,1.2,12.3,2.9,16.2,4.8l-5.1,15.2c-4.5-1.9-9.2-3.4-14-4.4
		c-6.8-1.4-13.8-2.1-20.8-2.1c-9.1,0-16,2-20.5,6.1c-4.6,4.1-6.8,8.9-6.8,14.4c-0.1,5,1.7,9.9,5.2,13.5c3.8,3.9,8.2,7.1,13,9.6
		c5.2,2.8,10.8,5.6,16.9,8.4c5.9,2.7,11.6,5.9,16.9,9.6c5.1,3.6,9.5,8,13,13.2c3.4,5.1,5.2,11.5,5.2,19.1c0.1,5.8-1,11.5-3.3,16.8
		c-2.2,5-5.5,9.4-9.7,12.9c-4.6,3.8-9.9,6.6-15.5,8.3c-6.7,2-13.7,3-20.7,2.9c-10.3,0-18.9-0.8-25.7-2.4c-6.8-1.6-14.9-3.4-18.7-5.3
		l8.7-15.5c3.2,1.8,7.9,3.5,14.1,5.3c6.8,1.8,13.9,2.7,20.9,2.6c4.3,0,8.6-0.4,12.8-1.4c3.7-0.8,7.2-2.2,10.4-4.4
		c2.9-2,5.2-4.5,6.9-7.6C906.6,178.7,907.5,175,907.4,171.2z"/>
	<path class="st0" d="M929.9,104.5h16.2V84l16.6-4.8v25.3h28.2V119h-28.2v57.3c0,7.2,0.9,12.3,2.7,15.2s4.8,4.5,9.1,4.5
		c3.1,0.1,6.2-0.3,9.1-1.1c2.5-0.8,5.2-1.8,8.3-3l3.7,12.6c-3.9,1.9-8,3.3-12.2,4.4c-4.7,1.1-9.5,1.7-14.3,1.7
		c-8.4,0-14.4-2.4-17.8-7.1s-5.2-12.8-5.2-24V119h-16.2L929.9,104.5z"/>
	<path class="st0" d="M1058.8,120.4c-3.8-1.3-7.8-2-11.8-2.1c-5.9,0-10.6,1.6-14.1,4.9c-3.5,3.3-5.7,7.6-6.4,12.3v72.5h-16.6V104.5
		h11.6l3.1,12.6h0.8c2.3-4.3,5.5-8,9.4-10.9c3.7-2.6,8.3-3.8,14-3.8c4.6,0.1,9.1,0.8,13.5,2.1L1058.8,120.4z"/>
	<path class="st0" d="M1072.6,73c-0.1-3.1,1.1-6,3.2-8.2c2.1-2.3,5.1-3.5,8.2-3.4c3.2-0.1,6.2,1.2,8.5,3.4c2.3,2.1,3.6,5.1,3.5,8.2
		c0.1,3-1.2,5.9-3.5,7.9c-2.3,2.1-5.4,3.2-8.5,3.1c-3,0.1-6-1-8.2-3.1C1073.7,78.8,1072.5,75.9,1072.6,73z M1076.1,104.5h16.6v103.6
		h-16.6V104.5z"/>
	<path class="st0" d="M1115.7,104.5h11.4l3.1,12.4h0.8c3-4.7,7.3-8.5,12.3-11.1c5.4-2.6,11.3-3.9,17.3-3.8
		c13.8,0,24.1,4.1,30.9,12.2c6.8,8.2,10.2,21.5,10.2,40c0.1,8-1.1,15.9-3.4,23.5c-2,6.5-5.3,12.5-9.6,17.7c-4.1,4.8-9.2,8.6-15,11.2
		c-6.2,2.7-12.9,4-19.6,3.9c-4.1,0.1-8.1-0.2-12.1-0.9c-3.3-0.7-6.6-1.8-9.6-3.2v43.1h-16.6L1115.7,104.5z M1157.6,116.5
		c-7,0-12.6,1.8-16.7,5.5s-6.9,9.2-8.6,16.7V190c2.6,2,5.4,3.5,8.5,4.5c4.1,1.2,8.4,1.7,12.6,1.5c9.5,0,17.1-3.6,22.7-10.7
		s8.4-17.6,8.4-31.4c0-5.2-0.4-10.4-1.5-15.4c-0.8-4.2-2.4-8.2-4.7-11.8c-2.1-3.2-4.9-5.8-8.3-7.5
		C1166.2,117.3,1161.9,116.3,1157.6,116.5L1157.6,116.5z"/>
	<path class="st0" d="M1296.5,199.8c-4.7,3.6-10,6.3-15.7,7.9c-6.5,2-13.2,2.9-20,2.9c-7,0.2-14-1.1-20.5-3.8
		c-5.6-2.4-10.5-6.2-14.3-11c-3.9-5.1-6.7-10.9-8.3-17.1c-1.9-7.3-2.8-14.8-2.7-22.4c0-17.7,3.9-31.2,11.8-40.4
		c7.9-9.3,19.1-13.9,33.8-13.9c4.7,0,9.5,0.5,14.1,1.6c9.9,2,18.1,8.9,21.8,18.2c2.3,5.3,3.5,12.3,3.5,21c0,5.1-0.5,10.1-1.2,15.1
		h-66.5c-0.1,5.4,0.5,10.9,1.9,16.2c1.1,4.3,3,8.4,5.8,11.9c2.7,3.3,6.3,5.9,10.3,7.5c4.9,1.9,10.2,2.7,15.4,2.6
		c4.8,0,9.6-0.9,14.1-2.5c4.7-1.7,8.2-3.6,10.6-5.8L1296.5,199.8z M1260.8,116.5c-8.1,0-14.7,2.1-19.6,6.4c-4.9,4.3-7.8,11.6-8.8,22
		h51.4c0-10.5-2-17.9-6-22.1C1273.8,118.6,1268.2,116.5,1260.8,116.5z"/>
	<path class="st1" d="M109.1,180.8c21.2-14.5,26.6-43.4,12.1-64.6c0,0,0,0,0,0l-38.4,26.2l0,0c-10.6,7.3-25.1,4.5-32.3-6.1
		S46,111.3,56.6,104l0,0l0,0l35-24l22.5-15.4c21.2-14.5,26.6-43.4,12.1-64.6c0,0,0,0,0,0L87.9,26.3L30.4,65.7c0,0,0,0-0.1,0.1
		c-31.8,21.8-39.9,65.2-18.1,96.9S77.4,202.5,109.1,180.8L109.1,180.8z"/>
	<path class="st1" d="M159.6,89.9L159.6,89.9c-0.1,0.1-0.2,0.1-0.2,0.2L159.6,89.9c-21.1,14.5-26.6,43.4-12.1,64.6l38.4-26.2l0,0
		c10.6-7.2,25.1-4.5,32.3,6.1s4.5,25.1-6.1,32.3l0,0l0,0l-35,24L154.6,206c-21.2,14.5-26.6,43.4-12.1,64.6c0,0,0,0,0,0l38.3-26.3
		l57.5-39.4l0,0c32.2-21.1,41.2-64.3,20-96.5c-21.1-32.2-64.3-41.2-96.5-20C161.1,88.8,160.3,89.4,159.6,89.9z"/>
</g>
</svg>
